<?xml version="1.0" encoding="UTF-8"?>
<svg id="Layer_5" data-name="Layer 5" xmlns="http://www.w3.org/2000/svg" xmlns:xlink="http://www.w3.org/1999/xlink" viewBox="0 0 768.49 767.88">
  <defs>
    <style>
      .cls-1 {
        fill: url(#linear-gradient);
      }

      .cls-1, .cls-2, .cls-3, .cls-4, .cls-5, .cls-6 {
        stroke-width: 0px;
      }

      .cls-2 {
        fill: url(#linear-gradient-5);
      }

      .cls-3 {
        fill: url(#linear-gradient-2);
      }

      .cls-4 {
        fill: url(#linear-gradient-3);
      }

      .cls-5 {
        fill: #151741;
      }

      .cls-6 {
        fill: url(#linear-gradient-4);
      }
    </style>
    <linearGradient id="linear-gradient" x1="0" y1="186.48" x2="210.38" y2="186.48" gradientUnits="userSpaceOnUse">
      <stop offset="0" stop-color="#1c1c45"/>
      <stop offset=".51" stop-color="#414374"/>
      <stop offset="1" stop-color="#1c1c45"/>
    </linearGradient>
    <linearGradient id="linear-gradient-2" x1="63.46" y1="268.18" x2="273.84" y2="268.18" xlink:href="#linear-gradient"/>
    <linearGradient id="linear-gradient-3" x1="129.09" y1="351.23" x2="67.13" y2="295.48" gradientUnits="userSpaceOnUse">
      <stop offset="0" stop-color="#414374"/>
      <stop offset="1" stop-color="#151741"/>
    </linearGradient>
    <linearGradient id="linear-gradient-4" x1="52.62" y1="237.07" x2="220.84" y2="237.07" xlink:href="#linear-gradient"/>
    <linearGradient id="linear-gradient-5" x1="142.86" y1="124.48" x2="216.78" y2="163.71" xlink:href="#linear-gradient-3"/>
  </defs>
  <path class="cls-1" d="M0,145.63h128.68c45.09,0,81.7,36.61,81.7,81.7H81.7C36.61,227.33,0,190.72,0,145.63H0Z"/>
  <path class="cls-3" d="M63.46,227.33h128.68c45.09,0,81.7,36.61,81.7,81.7h-128.68c-45.09,0-81.7-36.61-81.7-81.7h0Z"/>
  <path class="cls-5" d="M138.31,158.38l-.08,4.09c-.14,1.7-.23,3.42-.26,5.15l-.62,32.61c-67.5.21-82.93,82.28-83.14,83.39l.86-45.11c.86-45.12,38.13-80.99,83.24-80.13Z"/>
  <path class="cls-4" d="M135.97,272.68v.2l-.37,19.45c-3.55,42.6-39.64,75.66-82.98,74.84,0,0,20.04-94.32,83.35-94.49Z"/>
  <path class="cls-6" d="M220.84,106.96l-1.57,82.57-.02,1.12c-2.34,10.83-20.13,82.03-83.11,82.03h-.17c-63.31.17-83.35,94.49-83.35,94.49l1.59-83.54h0c.21-1.12,15.64-83.19,83.14-83.4v.27s.16-.17.16-.17l.1-.1c59.18,0,80.62-82.23,83.23-93.27Z"/>
  <path class="cls-5" d="M219.25,190.65l-.49,25.49c-.86,45.12-38.13,80.99-83.24,80.13l.08-3.94c.15-1.75.24-3.52.27-5.3l.27-14.35c62.98,0,80.77-71.2,83.11-82.03Z"/>
  <path class="cls-2" d="M221.21,87.48l-.35,18.56-.02.92c-2.61,11.04-24.05,93.27-83.23,93.27h-.09l.71-37.76c3.47-42.67,39.59-75.81,82.98-74.99Z"/>
</svg>